<svg width="101" height="32" viewBox="0 0 101 32" fill="none" xmlns="http://www.w3.org/2000/svg">
<g clip-path="url(#clip0_8894_10922)">
<path d="M6.84666 6.90403L13.6933 0.057373H0V13.7507H13.6933L6.84666 6.90403Z" fill="#F05124"/>
<path d="M23.9601 0.057373L0 31.9999H7.98883L31.9426 0.057373H23.9601Z" fill="#F05124"/>
<path d="M18.2556 31.9999L25.1023 25.1596L31.9426 31.9999V18.313H18.2556V31.9999Z" fill="#F05124"/>
<path d="M41.45 17.7655H41.9668L44.2703 21.5684H47.4927L44.0279 16.4319L47.1098 11.5569H44.047L41.9668 15.2897H41.45V11.5569H38.7892V21.5684H41.45V17.7655Z" fill="#010101"/>
<path d="M51.3722 13.4775H48.6539V21.5685H51.3722V13.4775Z" fill="#010101"/>
<path d="M50.0131 12.731C50.8873 12.731 51.5318 12.1184 51.5318 11.3591C51.5318 10.5998 50.8873 10 50.0131 10C49.139 10 48.4945 10.6126 48.4945 11.3591C48.4945 12.1057 49.1517 12.731 50.0131 12.731Z" fill="#010101"/>
<path d="M58.2316 21.5684H60.9371V17.2231C60.9371 16.3234 61.3838 15.7044 62.2707 15.7044C63.03 15.7044 63.432 16.1639 63.432 17.2231V21.5684H66.1375V17.2231C66.1375 14.0071 64.7209 13.2478 63.247 13.2478C61.9899 13.2478 61.0392 13.7902 60.4394 14.6197C59.9098 13.5605 58.9782 13.2478 58.0466 13.2478C57.0448 13.2478 56.228 13.6051 55.641 14.1794V13.4775H53.0376V21.5684H55.7431V17.2231C55.7431 16.3234 56.2025 15.7044 57.0767 15.7044C57.836 15.7044 58.238 16.1639 58.238 17.2231V21.5684H58.2316Z" fill="#010101"/>
<path d="M72.7672 21.7855C74.2731 21.7855 75.5429 21.1857 76.5064 20.3115L74.9878 18.3079C74.3433 18.8822 73.5967 19.2778 72.7672 19.2778C71.3379 19.2778 69.9916 18.1356 69.9916 16.5723C69.9916 15.009 71.2805 13.886 72.8119 13.886C73.5584 13.886 74.3561 14.2433 74.975 14.7984L76.5064 12.8523C75.4918 11.9207 74.1008 11.3528 72.8119 11.3336C69.7044 11.3336 67.2988 13.5924 67.2988 16.5532C67.2988 19.6862 69.9341 21.7727 72.7672 21.7727V21.7855Z" fill="#010101"/>
<path d="M81.19 21.7855C82.2812 21.7855 83.1234 21.3835 83.7232 20.6816V21.5685H86.3266V13.4776H83.7232V14.3518C83.1043 13.6371 82.2492 13.2543 81.19 13.2543C78.8546 13.2543 77.2084 15.143 77.2084 17.5294C77.2084 19.9159 78.7844 21.7919 81.19 21.7919V21.7855ZM81.7898 15.679C82.7916 15.679 83.6403 16.3809 83.6403 17.5103C83.6403 18.6397 82.8491 19.3544 81.7771 19.3544C80.6349 19.3544 79.8883 18.4674 79.8883 17.5103C79.8883 16.5532 80.7051 15.679 81.7898 15.679Z" fill="#010101"/>
<path d="M90.5507 17.2231C90.5507 16.3234 91.0101 15.7044 91.8843 15.7044C92.6436 15.7044 93.0456 16.1639 93.0456 17.2231V21.5684H95.7511V17.2231C95.7511 16.3234 96.1977 15.7044 97.0847 15.7044C97.844 15.7044 98.246 16.1639 98.246 17.2231V21.5684H100.951V17.2231C100.951 14.0071 99.5349 13.2478 98.0609 13.2478C96.8039 13.2478 95.8532 13.7902 95.2534 14.6197C94.7237 13.5605 93.7921 13.2478 92.8605 13.2478C91.8587 13.2478 91.042 13.6051 90.455 14.1794V13.4775H87.8516V21.5684H90.557V17.2231H90.5507Z" fill="#010101"/>
</g>
<defs>
<clipPath id="clip0_8894_10922">
<rect width="101" height="32" fill="white"/>
</clipPath>
</defs>
</svg>
